<svg t="1638948090145" class="icon" viewBox="0 0 1024 1024" version="1.1" xmlns="http://www.w3.org/2000/svg" p-id="5340" width="64" height="64"><path d="M102.4 102.4m51.2 0l279.9104 0q51.2 0 51.2 51.2l0 716.8q0 51.2-51.2 51.2l-279.9104 0q-51.2 0-51.2-51.2l0-716.8q0-51.2 51.2-51.2Z" fill="#4DB87F" p-id="5341"></path><path d="M539.2896 102.4m51.2 0l279.9104 0q51.2 0 51.2 51.2l0 279.9104q0 51.2-51.2 51.2l-279.9104 0q-51.2 0-51.2-51.2l0-279.9104q0-51.2 51.2-51.2Z" fill="#4DB87F" opacity=".3" p-id="5342"></path><path d="M539.2896 539.2896m51.2 0l279.9104 0q51.2 0 51.2 51.2l0 279.9104q0 51.2-51.2 51.2l-279.9104 0q-51.2 0-51.2-51.2l0-279.9104q0-51.2 51.2-51.2Z" fill="#4DB87F" opacity=".3" p-id="5343"></path></svg>
