<svg width="24" height="24" viewBox="0 0 24 24" fill-rule="evenodd" xmlns="http://www.w3.org/2000/svg">
<path fill-rule="evenodd" clip-rule="evenodd" d="M6.34288 16.2424C5.95236 16.633 5.95236 17.2661 6.34288 17.6567C6.73341 18.0472 7.36657 18.0472 7.75709 17.6567L11.9997 13.414L16.2424 17.6567C16.6329 18.0472 17.2661 18.0472 17.6566 17.6567C18.0471 17.2661 18.0471 16.633 17.6566 16.2425L13.4139 11.9998L17.6566 7.75716C18.0471 7.36663 18.0471 6.73347 17.6566 6.34294C17.2661 5.95242 16.6329 5.95242 16.2424 6.34294L11.9997 10.5856L7.75709 6.34296C7.36657 5.95244 6.73341 5.95244 6.34288 6.34296C5.95236 6.73349 5.95236 7.36665 6.34288 7.75718L10.5855 11.9998L6.34288 16.2424Z"/>
</svg>
