<svg width="49" height="48" viewBox="0 0 49 48" fill-rule="evenodd" xmlns="http://www.w3.org/2000/svg">
<path fill-rule="evenodd" clip-rule="evenodd" d="M4.5 24C4.5 12.96 13.46 4 24.5 4C35.54 4 44.5 12.96 44.5 24C44.5 35.04 35.54 44 24.5 44C13.46 44 4.5 35.04 4.5 24ZM32.2608 16.5792C33.0438 15.7962 34.3148 15.7993 35.095 16.585C35.8713 17.3669 35.8699 18.6301 35.0908 19.4092L21.9142 32.5858C21.1332 33.3668 19.8668 33.3668 19.0858 32.5858L13.9114 27.4114C13.1319 26.6319 13.1319 25.3681 13.9114 24.5886C14.6898 23.8102 15.9514 23.809 16.7314 24.5859L20.5 28.34L32.2608 16.5792Z" />
</svg>
